<?xml version="1.0" standalone="no"?>
<!DOCTYPE svg PUBLIC "-//W3C//DTD SVG 20010904//EN"
 "http://www.w3.org/TR/2001/REC-SVG-20010904/DTD/svg10.dtd">
<svg version="1.0" xmlns="http://www.w3.org/2000/svg"
 width="512.000000pt" height="512.000000pt" viewBox="0 0 512.000000 512.000000"
 preserveAspectRatio="xMidYMid meet">
<metadata>
Created by potrace 1.14, written by Peter Selinger 2001-2017
</metadata>
<g transform="translate(0.000000,512.000000) scale(0.100000,-0.100000)"
fill="#000000" stroke="none">
<path d="M2418 4205 c-2 -2 -35 -5 -73 -6 -39 -1 -88 -6 -110 -10 -22 -4 -65
-10 -96 -13 -128 -15 -342 -78 -459 -136 -39 -19 -73 -27 -115 -29 -200 -6
-430 -88 -595 -211 -347 -259 -609 -804 -645 -1345 -6 -93 -8 -283 -3 -306 2
-8 -14 -15 -45 -20 -161 -25 -271 -200 -227 -360 24 -85 123 -182 199 -195 74
-12 74 -12 67 -56 -8 -50 -66 -140 -179 -280 -92 -113 -137 -187 -137 -223 0
-38 48 -72 125 -87 96 -19 365 -14 480 8 11 2 40 7 65 10 37 5 110 20 234 49
87 20 313 109 382 151 31 19 60 34 64 34 4 0 56 -16 116 -36 162 -53 405 -104
566 -120 34 -3 77 -8 93 -10 237 -26 757 -26 890 1 11 2 47 7 80 10 33 3 96
12 140 20 44 8 97 17 119 20 21 3 42 8 46 10 5 3 32 10 62 15 29 6 111 29 182
51 124 40 130 41 155 25 58 -38 196 -98 309 -136 224 -75 471 -115 707 -114
129 1 193 9 242 29 46 19 62 42 58 82 -4 42 -30 84 -140 223 -109 137 -155
203 -155 224 0 8 -4 17 -8 20 -16 9 -8 71 8 72 91 4 186 69 231 156 29 57 35
141 15 210 -28 99 -127 184 -231 198 -39 5 -39 6 -37 45 31 618 -209 1259
-593 1580 -77 65 -104 83 -195 132 -128 69 -310 119 -455 124 -37 1 -79 11
-110 25 -122 55 -260 101 -360 120 -11 2 -33 6 -48 10 -16 3 -38 7 -50 9 -64
8 -137 17 -177 21 -58 6 -387 14 -392 9z"/>
</g>
</svg>
